<svg width="49" height="49" viewBox="0 0 49 49" fill="none" xmlns="http://www.w3.org/2000/svg">
<path d="M41.8323 7.16786C32.2749 -2.38929 16.7249 -2.38929 7.16772 7.16786C-2.38924 16.7248 -2.38924 32.2752 7.16772 41.8321C11.9463 46.6107 18.2232 49 24.5001 49C30.777 49 37.0537 46.6107 41.8324 41.8321C51.3892 32.2752 51.3892 16.7248 41.8323 7.16786ZM9.64377 39.3563C1.45206 31.1646 1.45206 17.8356 9.64377 9.6439C13.7397 5.54815 19.1198 3.50008 24.4999 3.50008C29.88 3.50008 35.2602 5.54796 39.356 9.6439C47.5477 17.8356 47.5477 31.1646 39.356 39.3563C31.1643 47.5478 17.8355 47.5478 9.64377 39.3563Z" fill="white"/>
<path d="M37.9 22.7492H26.2508V11.1C26.2508 10.133 25.467 9.34919 24.5 9.34919C23.5329 9.34919 22.7491 10.133 22.7491 11.1V22.7492H11.0999C10.1329 22.7492 9.34912 23.533 9.34912 24.5C9.34912 25.467 10.1329 26.2508 11.0999 26.2508H22.7491V37.9C22.7491 38.867 23.5329 39.6508 24.5 39.6508C25.467 39.6508 26.2508 38.867 26.2508 37.9V26.2508H37.9C38.867 26.2508 39.6508 25.467 39.6508 24.5C39.6508 23.533 38.867 22.7492 37.9 22.7492Z" fill="white"/>
</svg>
