<svg width="24" height="21" viewBox="0 0 24 21" fill="none" xmlns="http://www.w3.org/2000/svg">
<path d="M23.8312 3.04396C23.724 2.93602 23.5784 2.87561 23.4272 2.87561C23.4256 2.87561 23.4256 2.87561 23.4256 2.87561L21.7129 2.88205V0.575122C21.7129 0.256952 21.4569 0 21.1417 0H20.4265C16.1347 0 13.6203 0.626673 11.9988 2.1418C10.3773 0.626673 7.86294 0 3.57108 0H2.8567C2.54152 0 2.28552 0.256952 2.28552 0.575122V2.88205L0.572781 2.87561C0.417586 2.8748 0.274391 2.93602 0.167195 3.04396C0.0599981 3.15189 0 3.2993 0 3.45154V18.267C0 18.5851 0.255992 18.8421 0.571981 18.8421H1.28636C8.9757 18.8421 10.6188 20.5892 10.7812 20.7906C10.89 20.9219 11.0516 21 11.2236 21H12.7756C12.9484 21 13.11 20.9219 13.2188 20.7906C13.3804 20.5892 15.0243 18.8421 22.7136 18.8421H23.428C23.744 18.8421 24 18.5851 24 18.267V3.45154C23.9992 3.2993 23.9384 3.15189 23.8312 3.04396ZM1.14316 17.6918V4.02827L2.28632 4.0331V17.7023C1.96313 17.6951 1.63035 17.6918 1.28636 17.6918H1.14316ZM3.42869 17.7394V3.46362C3.42869 3.46201 3.42869 3.4604 3.42869 3.45717V1.15024H3.57188C7.74854 1.15024 10.0525 1.7447 11.4276 3.19136V19.8103C10.6708 19.1103 8.65091 17.9834 3.42869 17.7394ZM12.5716 19.8103V3.19136C13.9459 1.7447 16.2515 1.15024 20.4273 1.15024H20.5705V3.45717V17.7394C15.3467 17.9834 13.3284 19.1103 12.5716 19.8103ZM22.856 17.6918H22.7128C22.3681 17.6918 22.0361 17.6951 21.7129 17.7023V4.0331L22.856 4.02827V17.6918Z" fill="white"/>
</svg>
