<svg width="179" height="26" viewBox="0 0 179 26" fill="none" xmlns="http://www.w3.org/2000/svg">
<path d="M10.616 2.32V4.552H3.536V9.472H9.056V11.704H3.536V19H0.8V2.32H10.616ZM19.8876 19.216C18.6396 19.216 17.5116 18.936 16.5036 18.376C15.4956 17.8 14.7036 17 14.1276 15.976C13.5516 14.936 13.2636 13.736 13.2636 12.376C13.2636 11.032 13.5596 9.84 14.1516 8.8C14.7436 7.76 15.5516 6.96 16.5756 6.4C17.5996 5.84 18.7436 5.56 20.0076 5.56C21.2716 5.56 22.4156 5.84 23.4396 6.4C24.4636 6.96 25.2716 7.76 25.8636 8.8C26.4556 9.84 26.7516 11.032 26.7516 12.376C26.7516 13.72 26.4476 14.912 25.8396 15.952C25.2316 16.992 24.3996 17.8 23.3436 18.376C22.3036 18.936 21.1516 19.216 19.8876 19.216ZM19.8876 16.84C20.5916 16.84 21.2476 16.672 21.8556 16.336C22.4796 16 22.9836 15.496 23.3676 14.824C23.7516 14.152 23.9436 13.336 23.9436 12.376C23.9436 11.416 23.7596 10.608 23.3916 9.952C23.0236 9.28 22.5356 8.776 21.9276 8.44C21.3196 8.104 20.6636 7.936 19.9596 7.936C19.2556 7.936 18.5996 8.104 17.9916 8.44C17.3996 8.776 16.9276 9.28 16.5756 9.952C16.2236 10.608 16.0476 11.416 16.0476 12.376C16.0476 13.8 16.4076 14.904 17.1276 15.688C17.8636 16.456 18.7836 16.84 19.8876 16.84ZM37.1283 5.56C38.1683 5.56 39.0963 5.776 39.9123 6.208C40.7443 6.64 41.3923 7.28 41.8563 8.128C42.3203 8.976 42.5523 10 42.5523 11.2V19H39.8403V11.608C39.8403 10.424 39.5443 9.52 38.9523 8.896C38.3603 8.256 37.5523 7.936 36.5283 7.936C35.5043 7.936 34.6883 8.256 34.0803 8.896C33.4883 9.52 33.1923 10.424 33.1923 11.608V19H30.4563V5.776H33.1923V7.288C33.6403 6.744 34.2083 6.32 34.8963 6.016C35.6003 5.712 36.3443 5.56 37.1283 5.56ZM50.2342 8.008V15.328C50.2342 15.824 50.3462 16.184 50.5702 16.408C50.8102 16.616 51.2102 16.72 51.7702 16.72H53.4502V19H51.2902C50.0582 19 49.1142 18.712 48.4582 18.136C47.8022 17.56 47.4742 16.624 47.4742 15.328V8.008H45.9142V5.776H47.4742V2.488H50.2342V5.776H53.4502V8.008H50.2342ZM65.3103 19.168C64.8143 19.168 64.3983 19 64.0623 18.664C63.7263 18.328 63.5583 17.912 63.5583 17.416C63.5583 16.92 63.7263 16.504 64.0623 16.168C64.3983 15.832 64.8143 15.664 65.3103 15.664C65.7903 15.664 66.1983 15.832 66.5343 16.168C66.8703 16.504 67.0383 16.92 67.0383 17.416C67.0383 17.912 66.8703 18.328 66.5343 18.664C66.1983 19 65.7903 19.168 65.3103 19.168ZM65.3103 9.088C64.8143 9.088 64.3983 8.92 64.0623 8.584C63.7263 8.248 63.5583 7.832 63.5583 7.336C63.5583 6.84 63.7263 6.424 64.0623 6.088C64.3983 5.752 64.8143 5.584 65.3103 5.584C65.7903 5.584 66.1983 5.752 66.5343 6.088C66.8703 6.424 67.0383 6.84 67.0383 7.336C67.0383 7.832 66.8703 8.248 66.5343 8.584C66.1983 8.92 65.7903 9.088 65.3103 9.088ZM89.9874 7.288C89.9874 8.136 89.7874 8.936 89.3874 9.688C88.9874 10.44 88.3474 11.056 87.4674 11.536C86.5874 12 85.4594 12.232 84.0834 12.232H81.0594V19H78.3234V2.32H84.0834C85.3634 2.32 86.4434 2.544 87.3234 2.992C88.2194 3.424 88.8834 4.016 89.3154 4.768C89.7634 5.52 89.9874 6.36 89.9874 7.288ZM84.0834 10C85.1234 10 85.8994 9.768 86.4114 9.304C86.9234 8.824 87.1794 8.152 87.1794 7.288C87.1794 5.464 86.1474 4.552 84.0834 4.552H81.0594V10H84.0834ZM99.3329 19.216C98.0849 19.216 96.9569 18.936 95.9489 18.376C94.9409 17.8 94.1489 17 93.5729 15.976C92.9969 14.936 92.7089 13.736 92.7089 12.376C92.7089 11.032 93.0049 9.84 93.5969 8.8C94.1889 7.76 94.9969 6.96 96.0209 6.4C97.0449 5.84 98.1889 5.56 99.4529 5.56C100.717 5.56 101.861 5.84 102.885 6.4C103.909 6.96 104.717 7.76 105.309 8.8C105.901 9.84 106.197 11.032 106.197 12.376C106.197 13.72 105.893 14.912 105.285 15.952C104.677 16.992 103.845 17.8 102.789 18.376C101.749 18.936 100.597 19.216 99.3329 19.216ZM99.3329 16.84C100.037 16.84 100.693 16.672 101.301 16.336C101.925 16 102.429 15.496 102.813 14.824C103.197 14.152 103.389 13.336 103.389 12.376C103.389 11.416 103.205 10.608 102.837 9.952C102.469 9.28 101.981 8.776 101.373 8.44C100.765 8.104 100.109 7.936 99.4049 7.936C98.7009 7.936 98.0449 8.104 97.4369 8.44C96.8449 8.776 96.3729 9.28 96.0209 9.952C95.6689 10.608 95.4929 11.416 95.4929 12.376C95.4929 13.8 95.8529 14.904 96.5729 15.688C97.3089 16.456 98.2289 16.84 99.3329 16.84ZM112.638 7.72C113.102 7.112 113.734 6.6 114.534 6.184C115.334 5.768 116.238 5.56 117.246 5.56C118.398 5.56 119.446 5.848 120.39 6.424C121.35 6.984 122.102 7.776 122.646 8.8C123.19 9.824 123.462 11 123.462 12.328C123.462 13.656 123.19 14.848 122.646 15.904C122.102 16.944 121.35 17.76 120.39 18.352C119.446 18.928 118.398 19.216 117.246 19.216C116.238 19.216 115.342 19.016 114.558 18.616C113.774 18.2 113.134 17.688 112.638 17.08V25.288H109.902V5.776H112.638V7.72ZM120.678 12.328C120.678 11.416 120.486 10.632 120.102 9.976C119.734 9.304 119.238 8.8 118.614 8.464C118.006 8.112 117.35 7.936 116.646 7.936C115.958 7.936 115.302 8.112 114.678 8.464C114.07 8.816 113.574 9.328 113.19 10C112.822 10.672 112.638 11.464 112.638 12.376C112.638 13.288 112.822 14.088 113.19 14.776C113.574 15.448 114.07 15.96 114.678 16.312C115.302 16.664 115.958 16.84 116.646 16.84C117.35 16.84 118.006 16.664 118.614 16.312C119.238 15.944 119.734 15.416 120.102 14.728C120.486 14.04 120.678 13.24 120.678 12.328ZM129.903 7.72C130.367 7.112 130.999 6.6 131.799 6.184C132.599 5.768 133.503 5.56 134.511 5.56C135.663 5.56 136.711 5.848 137.655 6.424C138.615 6.984 139.367 7.776 139.911 8.8C140.455 9.824 140.727 11 140.727 12.328C140.727 13.656 140.455 14.848 139.911 15.904C139.367 16.944 138.615 17.76 137.655 18.352C136.711 18.928 135.663 19.216 134.511 19.216C133.503 19.216 132.607 19.016 131.823 18.616C131.039 18.2 130.399 17.688 129.903 17.08V25.288H127.167V5.776H129.903V7.72ZM137.943 12.328C137.943 11.416 137.751 10.632 137.367 9.976C136.999 9.304 136.503 8.8 135.879 8.464C135.271 8.112 134.615 7.936 133.911 7.936C133.223 7.936 132.567 8.112 131.943 8.464C131.335 8.816 130.839 9.328 130.455 10C130.087 10.672 129.903 11.464 129.903 12.376C129.903 13.288 130.087 14.088 130.455 14.776C130.839 15.448 131.335 15.96 131.943 16.312C132.567 16.664 133.223 16.84 133.911 16.84C134.615 16.84 135.271 16.664 135.879 16.312C136.503 15.944 136.999 15.416 137.367 14.728C137.751 14.04 137.943 13.24 137.943 12.328ZM145.825 4.024C145.329 4.024 144.913 3.856 144.577 3.52C144.241 3.184 144.073 2.768 144.073 2.272C144.073 1.776 144.241 1.36 144.577 1.024C144.913 0.687999 145.329 0.519999 145.825 0.519999C146.305 0.519999 146.713 0.687999 147.049 1.024C147.385 1.36 147.553 1.776 147.553 2.272C147.553 2.768 147.385 3.184 147.049 3.52C146.713 3.856 146.305 4.024 145.825 4.024ZM147.169 5.776V19H144.433V5.776H147.169ZM158.433 5.56C159.473 5.56 160.401 5.776 161.217 6.208C162.049 6.64 162.697 7.28 163.161 8.128C163.625 8.976 163.857 10 163.857 11.2V19H161.145V11.608C161.145 10.424 160.849 9.52 160.257 8.896C159.665 8.256 158.857 7.936 157.833 7.936C156.809 7.936 155.993 8.256 155.385 8.896C154.793 9.52 154.497 10.424 154.497 11.608V19H151.761V5.776H154.497V7.288C154.945 6.744 155.513 6.32 156.201 6.016C156.905 5.712 157.649 5.56 158.433 5.56ZM173.147 19.216C172.107 19.216 171.171 19.032 170.339 18.664C169.523 18.28 168.875 17.768 168.395 17.128C167.915 16.472 167.659 15.744 167.627 14.944H170.459C170.507 15.504 170.771 15.976 171.251 16.36C171.747 16.728 172.363 16.912 173.099 16.912C173.867 16.912 174.459 16.768 174.875 16.48C175.307 16.176 175.523 15.792 175.523 15.328C175.523 14.832 175.283 14.464 174.803 14.224C174.339 13.984 173.595 13.72 172.571 13.432C171.579 13.16 170.771 12.896 170.147 12.64C169.523 12.384 168.979 11.992 168.515 11.464C168.067 10.936 167.843 10.24 167.843 9.376C167.843 8.672 168.051 8.032 168.467 7.456C168.883 6.864 169.475 6.4 170.243 6.064C171.027 5.728 171.923 5.56 172.931 5.56C174.435 5.56 175.643 5.944 176.555 6.712C177.483 7.464 177.979 8.496 178.043 9.808H175.307C175.259 9.216 175.019 8.744 174.587 8.392C174.155 8.04 173.571 7.864 172.835 7.864C172.115 7.864 171.563 8 171.179 8.272C170.795 8.544 170.603 8.904 170.603 9.352C170.603 9.704 170.731 10 170.987 10.24C171.243 10.48 171.555 10.672 171.923 10.816C172.291 10.944 172.835 11.112 173.555 11.32C174.515 11.576 175.299 11.84 175.907 12.112C176.531 12.368 177.067 12.752 177.515 13.264C177.963 13.776 178.195 14.456 178.211 15.304C178.211 16.056 178.003 16.728 177.587 17.32C177.171 17.912 176.579 18.376 175.811 18.712C175.059 19.048 174.171 19.216 173.147 19.216Z" fill="white"/>
</svg>
