<svg width="35" height="42" viewBox="0 0 35 42" fill="none" xmlns="http://www.w3.org/2000/svg">
<path d="M20.9604 11.7421H21.0095C21.0095 11.7421 20.9714 11.6461 20.9604 11.7421Z" fill="white"/>
<path d="M9.11035 11.7421H9.15944C9.14853 11.6461 9.11035 11.7421 9.11035 11.7421Z" fill="white"/>
<path d="M33.844 12.6695C33.5686 12.2298 33.1386 11.9238 32.6331 11.8077L29.9706 11.1959L31.1999 10.8518C32.2185 10.5667 32.8322 9.47882 32.5466 8.45835C32.2614 7.43978 31.1737 6.82621 30.1531 7.11164L24.421 8.71592C24.2718 8.44438 24.0596 8.21201 23.804 8.03906C24.9673 5.87417 26.6433 2.20035 26.6433 0.619862C26.6433 0.234366 26.2789 -0.0638657 25.9008 0.0123244C23.626 0.471861 21.5051 0.683904 19.4194 0.66118C17.2756 0.637628 14.6076 0.371376 12.9311 0.0137292C12.4128 -0.0968373 11.9969 0.4831 12.2703 0.938753C12.6788 1.61959 12.9291 2.33951 13.0667 3.06505C10.9627 3.12951 8.78067 2.87458 7.1292 2.0488C6.68437 1.82634 6.15922 2.21556 6.24062 2.70501C6.76006 5.82112 7.80788 7.64811 8.85851 9.02845H8.83521C7.76442 9.02845 6.89327 9.8996 6.89327 10.9704C6.89327 11.9552 7.6303 12.7705 8.5816 12.8952C7.88821 14.0566 6.8979 15.1585 5.85743 16.3149C3.64478 18.7738 1.13687 21.5609 0.29308 26.0611C-0.110678 28.2143 -0.0972084 30.229 0.333158 32.0495C0.734933 33.7491 1.50022 35.2873 2.60754 36.6217C4.07746 38.3929 6.097 39.7672 8.60995 40.7066C10.8736 41.5528 13.466 42 16.1071 42C18.7483 42 21.3407 41.5528 23.6044 40.7066C26.1173 39.7672 28.1368 38.3928 29.6068 36.6217C30.7141 35.2873 31.4794 33.7491 31.8811 32.0495C32.3115 30.229 32.325 28.2142 31.9212 26.0611C31.0774 21.561 28.5696 18.7739 26.3569 16.3149C25.6058 15.4801 24.8912 14.6841 24.292 13.8763L31.7633 15.5929C32.5548 15.7747 33.3982 15.4285 33.8355 14.7445C34.2358 14.1184 34.2381 13.2985 33.844 12.6695ZM30.4872 8.30531C30.8561 8.20185 31.2499 8.42414 31.3529 8.79245C31.4561 9.1615 31.2343 9.55509 30.8658 9.65814L27.5357 10.5902C27.5085 10.5978 27.4826 10.6076 27.4574 10.6185L24.66 9.97579V9.93621L30.4872 8.30531ZM22.7181 8.94573C23.1054 8.94573 23.4205 9.26082 23.4205 9.64814V12.2925C23.4205 12.6798 23.1054 12.9949 22.7181 12.9949C22.3308 12.9949 22.0157 12.6798 22.0157 12.2925V9.64814C22.0157 9.26082 22.3308 8.94573 22.7181 8.94573ZM13.8904 1.44622C15.5556 1.70396 17.6533 1.88138 19.4059 1.90063C21.3142 1.92146 23.2455 1.75461 25.2856 1.39102C24.9115 2.92036 23.7103 5.64031 22.571 7.7124C21.7814 7.77189 21.1224 8.30523 20.8781 9.02845H19.1574C19.1186 8.94466 19.0754 8.85293 19.0275 8.75096C18.4954 7.61993 17.3881 5.26638 17.3881 3.2642C17.3881 2.87929 17.0246 2.58089 16.6468 2.6565C15.9255 2.80078 15.132 2.91755 14.3064 2.99068C14.2199 2.47354 14.0856 1.95558 13.8904 1.44622ZM12.3579 9.02837H10.4403C10.4264 9.00664 10.4116 8.98532 10.3947 8.96499C9.35805 7.71793 8.30618 6.27536 7.68542 3.61813C9.23484 4.147 11.1408 4.38152 13.1993 4.30913L14.4277 4.23154C15.007 4.1784 15.5949 4.10188 16.1871 4.00164C16.3803 5.91904 17.2563 7.88924 17.7885 9.02837H13.6617H12.3579V9.02837ZM30.7031 26.2895C31.4206 30.1164 30.7309 33.3263 28.6529 35.83C26.0907 38.9173 21.4007 40.7605 16.1072 40.7605C10.8138 40.7605 6.12377 38.9173 3.56157 35.83C1.48361 33.3263 0.793935 30.1164 1.51138 26.2895C2.29113 22.1313 4.67533 19.4816 6.77891 17.1439C8.0367 15.7461 9.225 14.4239 9.98657 12.9122H11.5002C11.8426 12.9122 12.12 12.6348 12.12 12.2925C12.12 11.9502 11.8426 11.6727 11.5002 11.6727H8.83521C8.4479 11.6727 8.13281 11.3576 8.13281 10.9703C8.13281 10.583 8.4479 10.2679 8.83521 10.2679H20.7761V11.6727H14.4544C14.1121 11.6727 13.8347 11.9502 13.8347 12.2925C13.8347 12.6348 14.1121 12.9122 14.4544 12.9122H20.878C21.1373 13.6799 21.8639 14.2344 22.718 14.2344C22.8167 14.2344 22.9135 14.2269 23.0083 14.2127C23.7 15.2132 24.5431 16.1522 25.4356 17.144C27.5392 19.4818 29.9233 22.1313 30.7031 26.2895ZM32.8828 13.8575C32.796 14.235 32.4189 14.4717 32.0409 14.3848L24.621 12.68C24.6465 12.5548 24.6599 12.4252 24.6599 12.2925V11.2476L32.3554 13.0156C32.7284 13.1013 32.9685 13.4842 32.8828 13.8575Z" fill="white"/>
<path d="M17.7186 18.3253V17.2506C17.7186 16.3621 16.9957 15.6392 16.1072 15.6392C15.2187 15.6392 14.4958 16.3621 14.4958 17.2506V18.4074C12.1992 18.9196 10.5293 20.9613 10.5293 23.3657C10.5293 26.1679 12.8091 28.4478 15.6114 28.4478H16.603C17.6282 28.4478 18.4623 29.2818 18.4623 30.3071C18.4623 31.3323 17.6282 32.1664 16.603 32.1664H15.1156C14.3637 32.1664 13.7521 31.5547 13.7521 30.8029C13.7521 29.9144 13.0292 29.1915 12.1407 29.1915C11.2522 29.1915 10.5293 29.9144 10.5293 30.8029C10.5293 33.1217 12.2589 35.0441 14.4958 35.3474V36.4221C14.4958 37.3106 15.2187 38.0335 16.1072 38.0335C16.9957 38.0335 17.7186 37.3106 17.7186 36.4221V35.2654C20.0152 34.7531 21.6851 32.7114 21.6851 30.3071C21.6851 27.5048 19.4053 25.225 16.603 25.225H15.6114C14.5862 25.225 13.7521 24.3909 13.7521 23.3657C13.7521 22.3404 14.5862 21.5064 15.6114 21.5064H17.0988C17.8507 21.5064 18.4623 22.118 18.4623 22.8699V23.8615C18.4623 24.75 19.1852 25.4729 20.0737 25.4729C20.9622 25.4729 21.6851 24.75 21.6851 23.8615V22.8699C21.6851 20.551 19.9555 18.6287 17.7186 18.3253ZM20.4456 23.8615C20.4456 24.0665 20.2787 24.2334 20.0737 24.2334C19.8687 24.2334 19.7019 24.0665 19.7019 23.8615V22.8699C19.7019 21.4346 18.5341 20.2668 17.0988 20.2668H15.6114C13.9026 20.2668 12.5126 21.6569 12.5126 23.3657C12.5126 25.0744 13.9026 26.4645 15.6114 26.4645H16.603C18.7219 26.4645 20.4456 28.1883 20.4456 30.3071C20.4456 32.2675 18.9773 33.9089 17.0304 34.1253C16.7166 34.1601 16.4791 34.4254 16.4791 34.7412V36.4221C16.4791 36.6271 16.3122 36.794 16.1072 36.794C15.9022 36.794 15.7353 36.6271 15.7353 36.4221V34.7694C15.7353 34.4271 15.4579 34.1496 15.1156 34.1496C13.2702 34.1496 11.7688 32.6483 11.7688 30.8029C11.7688 30.5979 11.9357 30.431 12.1407 30.431C12.3457 30.431 12.5126 30.5979 12.5126 30.8029C12.5126 32.2382 13.6803 33.4059 15.1156 33.4059H16.603C18.3118 33.4059 19.7019 32.0158 19.7019 30.3071C19.7019 28.5983 18.3118 27.2082 16.603 27.2082H15.6114C13.4925 27.2082 11.7688 25.4845 11.7688 23.3657C11.7688 21.4052 13.2371 19.7638 15.184 19.5475C15.4978 19.5126 15.7353 19.2474 15.7353 18.9315V17.2506C15.7353 17.0456 15.9022 16.8788 16.1072 16.8788C16.3122 16.8788 16.4791 17.0456 16.4791 17.2506V18.9034C16.4791 19.2456 16.7565 19.5231 17.0988 19.5231C18.9443 19.5231 20.4456 21.0244 20.4456 22.8699V23.8615Z" fill="white"/>
</svg>
