<svg width="34" height="33" viewBox="0 0 34 33" fill="none" xmlns="http://www.w3.org/2000/svg">
<path d="M31.6668 17V31.6667H2.3335V17" stroke="white" stroke-width="2" stroke-miterlimit="10" stroke-linecap="round" stroke-linejoin="round"/>
<path d="M13 17V31.6667" stroke="white" stroke-width="2" stroke-miterlimit="10" stroke-linecap="round" stroke-linejoin="round"/>
<path d="M33 10.3333H1L5 1H29L33 10.3333Z" stroke="white" stroke-width="2" stroke-miterlimit="10" stroke-linecap="round" stroke-linejoin="round"/>
<path d="M16.9998 18.3333C14.0665 18.3333 11.6665 15.9333 11.6665 13V10.3333H22.3332V13C22.3332 15.9333 19.9332 18.3333 16.9998 18.3333Z" stroke="white" stroke-width="2" stroke-miterlimit="10" stroke-linecap="round" stroke-linejoin="round"/>
<path d="M6.33333 18.3333C3.4 18.3333 1 15.9333 1 13V10.3333H11.6667V13C11.6667 15.9333 9.26667 18.3333 6.33333 18.3333Z" stroke="white" stroke-width="2" stroke-miterlimit="10" stroke-linecap="round" stroke-linejoin="round"/>
<path d="M27.6668 18.3333C24.7335 18.3333 22.3335 15.9333 22.3335 13V10.3333H33.0002V13C33.0002 15.9333 30.6002 18.3333 27.6668 18.3333Z" stroke="white" stroke-width="2" stroke-miterlimit="10" stroke-linecap="round" stroke-linejoin="round"/>
</svg>
