<svg width="36" height="38" viewBox="0 0 36 38" fill="none" xmlns="http://www.w3.org/2000/svg">
<path d="M1 30.5714L4.34286 25.1714C6.27143 22.2143 9.48571 20.2857 13.0857 20.2857H21.5714C21.5714 23.1143 19.2571 25.4286 16.4286 25.4286H13.8571" stroke="white" stroke-width="2" stroke-miterlimit="10" stroke-linecap="round" stroke-linejoin="round"/>
<path d="M16.4284 25.4286H26.7141L28.2569 23.3714C29.6712 21.4429 31.9855 20.2857 34.4284 20.2857L30.9569 26.4571C29.1569 29.8 25.5569 31.8571 21.8284 31.8571C15.7855 31.8571 9.87122 33.6571 4.85693 37" stroke="white" stroke-width="2" stroke-miterlimit="10" stroke-linecap="round" stroke-linejoin="round"/>
<path d="M22.857 10C22.857 12.8286 20.5427 15.1429 17.7141 15.1429C14.8856 15.1429 12.5713 12.8286 12.5713 10C12.5713 6.14286 17.7141 1 17.7141 1C17.7141 1 22.857 6.14286 22.857 10Z" stroke="white" stroke-width="2" stroke-miterlimit="10" stroke-linecap="round" stroke-linejoin="round"/>
</svg>
