<svg width="416" height="24" viewBox="0 0 416 24" fill="none" xmlns="http://www.w3.org/2000/svg">
<path d="M0.52 19V2.2H2.92V16.912H12.016V19H0.52ZM20.7179 19.144C19.4379 19.144 18.3019 18.864 17.3099 18.304C16.3179 17.744 15.5339 16.976 14.9579 16C14.3819 15.008 14.0939 13.888 14.0939 12.64C14.0939 11.376 14.3819 10.256 14.9579 9.28C15.5339 8.304 16.3179 7.544 17.3099 7C18.3019 6.44 19.4379 6.16 20.7179 6.16C21.9819 6.16 23.1099 6.44 24.1019 7C25.1099 7.544 25.8939 8.304 26.4539 9.28C27.0299 10.24 27.3179 11.36 27.3179 12.64C27.3179 13.904 27.0299 15.024 26.4539 16C25.8939 16.976 25.1099 17.744 24.1019 18.304C23.1099 18.864 21.9819 19.144 20.7179 19.144ZM20.7179 17.128C21.5339 17.128 22.2619 16.944 22.9019 16.576C23.5579 16.208 24.0699 15.688 24.4379 15.016C24.8059 14.328 24.9899 13.536 24.9899 12.64C24.9899 11.728 24.8059 10.944 24.4379 10.288C24.0699 9.616 23.5579 9.096 22.9019 8.728C22.2619 8.36 21.5339 8.176 20.7179 8.176C19.9019 8.176 19.1739 8.36 18.5339 8.728C17.8939 9.096 17.3819 9.616 16.9979 10.288C16.6139 10.944 16.4219 11.728 16.4219 12.64C16.4219 13.536 16.6139 14.328 16.9979 15.016C17.3819 15.688 17.8939 16.208 18.5339 16.576C19.1739 16.944 19.9019 17.128 20.7179 17.128ZM37.0723 23.8C35.9043 23.8 34.7683 23.632 33.6643 23.296C32.5763 22.976 31.6883 22.512 31.0003 21.904L32.1043 20.128C32.6963 20.64 33.4243 21.04 34.2883 21.328C35.1523 21.632 36.0563 21.784 37.0003 21.784C38.5043 21.784 39.6083 21.432 40.3123 20.728C41.0163 20.024 41.3683 18.952 41.3683 17.512V14.824L41.6083 12.304L41.4883 9.76V6.28H43.6723V17.272C43.6723 19.512 43.1123 21.16 41.9923 22.216C40.8723 23.272 39.2323 23.8 37.0723 23.8ZM36.7843 18.472C35.5523 18.472 34.4483 18.216 33.4723 17.704C32.5123 17.176 31.7443 16.448 31.1683 15.52C30.6083 14.592 30.3283 13.52 30.3283 12.304C30.3283 11.072 30.6083 10 31.1683 9.088C31.7443 8.16 32.5123 7.44 33.4723 6.928C34.4483 6.416 35.5523 6.16 36.7843 6.16C37.8723 6.16 38.8643 6.384 39.7603 6.832C40.6563 7.264 41.3683 7.936 41.8963 8.848C42.4403 9.76 42.7123 10.912 42.7123 12.304C42.7123 13.68 42.4403 14.824 41.8963 15.736C41.3683 16.648 40.6563 17.336 39.7603 17.8C38.8643 18.248 37.8723 18.472 36.7843 18.472ZM37.0483 16.456C37.8963 16.456 38.6483 16.28 39.3043 15.928C39.9603 15.576 40.4723 15.088 40.8403 14.464C41.2243 13.84 41.4163 13.12 41.4163 12.304C41.4163 11.488 41.2243 10.768 40.8403 10.144C40.4723 9.52 39.9603 9.04 39.3043 8.704C38.6483 8.352 37.8963 8.176 37.0483 8.176C36.2003 8.176 35.4403 8.352 34.7683 8.704C34.1123 9.04 33.5923 9.52 33.2083 10.144C32.8403 10.768 32.6563 11.488 32.6563 12.304C32.6563 13.12 32.8403 13.84 33.2083 14.464C33.5923 15.088 34.1123 15.576 34.7683 15.928C35.4403 16.28 36.2003 16.456 37.0483 16.456ZM54.5226 19.144C53.2426 19.144 52.1066 18.864 51.1146 18.304C50.1226 17.744 49.3386 16.976 48.7626 16C48.1866 15.008 47.8986 13.888 47.8986 12.64C47.8986 11.376 48.1866 10.256 48.7626 9.28C49.3386 8.304 50.1226 7.544 51.1146 7C52.1066 6.44 53.2426 6.16 54.5226 6.16C55.7866 6.16 56.9146 6.44 57.9066 7C58.9146 7.544 59.6986 8.304 60.2586 9.28C60.8346 10.24 61.1226 11.36 61.1226 12.64C61.1226 13.904 60.8346 15.024 60.2586 16C59.6986 16.976 58.9146 17.744 57.9066 18.304C56.9146 18.864 55.7866 19.144 54.5226 19.144ZM54.5226 17.128C55.3386 17.128 56.0666 16.944 56.7066 16.576C57.3626 16.208 57.8746 15.688 58.2426 15.016C58.6106 14.328 58.7946 13.536 58.7946 12.64C58.7946 11.728 58.6106 10.944 58.2426 10.288C57.8746 9.616 57.3626 9.096 56.7066 8.728C56.0666 8.36 55.3386 8.176 54.5226 8.176C53.7066 8.176 52.9786 8.36 52.3386 8.728C51.6986 9.096 51.1866 9.616 50.8026 10.288C50.4186 10.944 50.2266 11.728 50.2266 12.64C50.2266 13.536 50.4186 14.328 50.8026 15.016C51.1866 15.688 51.6986 16.208 52.3386 16.576C52.9786 16.944 53.7066 17.128 54.5226 17.128ZM73.0903 19V5.152C73.0903 3.904 73.4503 2.912 74.1703 2.176C74.9063 1.424 75.9463 1.048 77.2903 1.048C77.7863 1.048 78.2583 1.112 78.7063 1.24C79.1703 1.352 79.5623 1.536 79.8823 1.792L79.1863 3.544C78.9463 3.352 78.6743 3.208 78.3703 3.112C78.0663 3 77.7463 2.944 77.4103 2.944C76.7383 2.944 76.2263 3.136 75.8743 3.52C75.5223 3.888 75.3463 4.44 75.3463 5.176V6.88L75.3943 7.936V19H73.0903ZM70.9303 8.176V6.28H79.0423V8.176H70.9303ZM87.4758 19.144C86.1958 19.144 85.0598 18.864 84.0678 18.304C83.0758 17.744 82.2918 16.976 81.7158 16C81.1398 15.008 80.8518 13.888 80.8518 12.64C80.8518 11.376 81.1398 10.256 81.7158 9.28C82.2918 8.304 83.0758 7.544 84.0678 7C85.0598 6.44 86.1958 6.16 87.4758 6.16C88.7398 6.16 89.8678 6.44 90.8598 7C91.8678 7.544 92.6518 8.304 93.2118 9.28C93.7878 10.24 94.0758 11.36 94.0758 12.64C94.0758 13.904 93.7878 15.024 93.2118 16C92.6518 16.976 91.8678 17.744 90.8598 18.304C89.8678 18.864 88.7398 19.144 87.4758 19.144ZM87.4758 17.128C88.2918 17.128 89.0198 16.944 89.6598 16.576C90.3158 16.208 90.8278 15.688 91.1958 15.016C91.5638 14.328 91.7478 13.536 91.7478 12.64C91.7478 11.728 91.5638 10.944 91.1958 10.288C90.8278 9.616 90.3158 9.096 89.6598 8.728C89.0198 8.36 88.2918 8.176 87.4758 8.176C86.6598 8.176 85.9318 8.36 85.2918 8.728C84.6518 9.096 84.1398 9.616 83.7558 10.288C83.3718 10.944 83.1798 11.728 83.1798 12.64C83.1798 13.536 83.3718 14.328 83.7558 15.016C84.1398 15.688 84.6518 16.208 85.2918 16.576C85.9318 16.944 86.6598 17.128 87.4758 17.128ZM105.054 6.16C106.094 6.16 107.006 6.36 107.79 6.76C108.59 7.16 109.214 7.768 109.662 8.584C110.11 9.4 110.334 10.432 110.334 11.68V19H108.03V11.944C108.03 10.712 107.726 9.784 107.118 9.16C106.526 8.536 105.686 8.224 104.598 8.224C103.782 8.224 103.07 8.384 102.462 8.704C101.854 9.024 101.382 9.496 101.046 10.12C100.726 10.744 100.566 11.52 100.566 12.448V19H98.2621V6.28H100.47V9.712L100.11 8.8C100.526 7.968 101.166 7.32 102.03 6.856C102.894 6.392 103.902 6.16 105.054 6.16ZM119.966 19.144C118.686 19.144 117.694 18.8 116.99 18.112C116.286 17.424 115.934 16.44 115.934 15.16V3.496H118.238V15.064C118.238 15.752 118.406 16.28 118.742 16.648C119.094 17.016 119.59 17.2 120.23 17.2C120.95 17.2 121.55 17 122.03 16.6L122.75 18.256C122.398 18.56 121.974 18.784 121.478 18.928C120.998 19.072 120.494 19.144 119.966 19.144ZM113.774 8.176V6.28H121.886V8.176H113.774ZM134.533 9.448C134.085 9.448 133.701 9.296 133.381 8.992C133.061 8.672 132.901 8.272 132.901 7.792C132.901 7.312 133.061 6.92 133.381 6.616C133.701 6.312 134.085 6.16 134.533 6.16C134.965 6.16 135.333 6.312 135.637 6.616C135.957 6.92 136.117 7.312 136.117 7.792C136.117 8.272 135.957 8.672 135.637 8.992C135.333 9.296 134.965 9.448 134.533 9.448ZM134.533 19.144C134.085 19.144 133.701 18.992 133.381 18.688C133.061 18.368 132.901 17.968 132.901 17.488C132.901 17.008 133.061 16.616 133.381 16.312C133.701 16.008 134.085 15.856 134.533 15.856C134.965 15.856 135.333 16.008 135.637 16.312C135.957 16.616 136.117 17.008 136.117 17.488C136.117 17.968 135.957 18.368 135.637 18.688C135.333 18.992 134.965 19.144 134.533 19.144ZM148.2 19V2.2H150.168L157.704 14.896H156.648L164.088 2.2H166.056L166.08 19H163.776L163.752 5.824H164.304L157.68 16.96H156.576L149.904 5.824H150.504V19H148.2ZM177.234 19.144C175.954 19.144 174.818 18.864 173.826 18.304C172.834 17.744 172.05 16.976 171.474 16C170.898 15.008 170.61 13.888 170.61 12.64C170.61 11.376 170.898 10.256 171.474 9.28C172.05 8.304 172.834 7.544 173.826 7C174.818 6.44 175.954 6.16 177.234 6.16C178.498 6.16 179.626 6.44 180.618 7C181.626 7.544 182.41 8.304 182.97 9.28C183.546 10.24 183.834 11.36 183.834 12.64C183.834 13.904 183.546 15.024 182.97 16C182.41 16.976 181.626 17.744 180.618 18.304C179.626 18.864 178.498 19.144 177.234 19.144ZM177.234 17.128C178.05 17.128 178.778 16.944 179.418 16.576C180.074 16.208 180.586 15.688 180.954 15.016C181.322 14.328 181.506 13.536 181.506 12.64C181.506 11.728 181.322 10.944 180.954 10.288C180.586 9.616 180.074 9.096 179.418 8.728C178.778 8.36 178.05 8.176 177.234 8.176C176.418 8.176 175.69 8.36 175.05 8.728C174.41 9.096 173.898 9.616 173.514 10.288C173.13 10.944 172.938 11.728 172.938 12.64C172.938 13.536 173.13 14.328 173.514 15.016C173.898 15.688 174.41 16.208 175.05 16.576C175.69 16.944 176.418 17.128 177.234 17.128ZM194.812 6.16C195.852 6.16 196.764 6.36 197.548 6.76C198.348 7.16 198.972 7.768 199.42 8.584C199.868 9.4 200.092 10.432 200.092 11.68V19H197.788V11.944C197.788 10.712 197.484 9.784 196.876 9.16C196.284 8.536 195.444 8.224 194.356 8.224C193.54 8.224 192.828 8.384 192.22 8.704C191.612 9.024 191.14 9.496 190.804 10.12C190.484 10.744 190.324 11.52 190.324 12.448V19H188.02V6.28H190.228V9.712L189.868 8.8C190.284 7.968 190.924 7.32 191.788 6.856C192.652 6.392 193.66 6.16 194.812 6.16ZM209.724 19.144C208.444 19.144 207.452 18.8 206.748 18.112C206.044 17.424 205.692 16.44 205.692 15.16V3.496H207.996V15.064C207.996 15.752 208.164 16.28 208.5 16.648C208.852 17.016 209.348 17.2 209.988 17.2C210.708 17.2 211.308 17 211.788 16.6L212.508 18.256C212.156 18.56 211.732 18.784 211.236 18.928C210.756 19.072 210.252 19.144 209.724 19.144ZM203.532 8.176V6.28H211.644V8.176H203.532ZM219.941 19.144C218.885 19.144 217.877 19 216.917 18.712C215.973 18.424 215.229 18.072 214.685 17.656L215.645 15.832C216.189 16.2 216.861 16.512 217.661 16.768C218.461 17.024 219.277 17.152 220.109 17.152C221.181 17.152 221.949 17 222.413 16.696C222.893 16.392 223.133 15.968 223.133 15.424C223.133 15.024 222.989 14.712 222.701 14.488C222.413 14.264 222.029 14.096 221.549 13.984C221.085 13.872 220.565 13.776 219.989 13.696C219.413 13.6 218.837 13.488 218.261 13.36C217.685 13.216 217.157 13.024 216.677 12.784C216.197 12.528 215.813 12.184 215.525 11.752C215.237 11.304 215.093 10.712 215.093 9.976C215.093 9.208 215.309 8.536 215.741 7.96C216.173 7.384 216.781 6.944 217.565 6.64C218.365 6.32 219.309 6.16 220.397 6.16C221.229 6.16 222.069 6.264 222.917 6.472C223.781 6.664 224.485 6.944 225.029 7.312L224.045 9.136C223.469 8.752 222.869 8.488 222.245 8.344C221.621 8.2 220.997 8.128 220.373 8.128C219.365 8.128 218.613 8.296 218.117 8.632C217.621 8.952 217.373 9.368 217.373 9.88C217.373 10.312 217.517 10.648 217.805 10.888C218.109 11.112 218.493 11.288 218.957 11.416C219.437 11.544 219.965 11.656 220.541 11.752C221.117 11.832 221.693 11.944 222.269 12.088C222.845 12.216 223.365 12.4 223.829 12.64C224.309 12.88 224.693 13.216 224.981 13.648C225.285 14.08 225.437 14.656 225.437 15.376C225.437 16.144 225.213 16.808 224.765 17.368C224.317 17.928 223.685 18.368 222.869 18.688C222.053 18.992 221.077 19.144 219.941 19.144ZM234.981 19.144C233.621 19.144 232.421 18.864 231.381 18.304C230.357 17.744 229.557 16.976 228.981 16C228.421 15.024 228.141 13.904 228.141 12.64C228.141 11.376 228.413 10.256 228.957 9.28C229.517 8.304 230.277 7.544 231.237 7C232.213 6.44 233.309 6.16 234.525 6.16C235.757 6.16 236.845 6.432 237.789 6.976C238.733 7.52 239.469 8.288 239.997 9.28C240.541 10.256 240.813 11.4 240.813 12.712C240.813 12.808 240.805 12.92 240.789 13.048C240.789 13.176 240.781 13.296 240.765 13.408H229.941V11.752H239.565L238.629 12.328C238.645 11.512 238.477 10.784 238.125 10.144C237.773 9.504 237.285 9.008 236.661 8.656C236.053 8.288 235.341 8.104 234.525 8.104C233.725 8.104 233.013 8.288 232.389 8.656C231.765 9.008 231.277 9.512 230.925 10.168C230.573 10.808 230.397 11.544 230.397 12.376V12.76C230.397 13.608 230.589 14.368 230.973 15.04C231.373 15.696 231.925 16.208 232.629 16.576C233.333 16.944 234.141 17.128 235.053 17.128C235.805 17.128 236.485 17 237.093 16.744C237.717 16.488 238.261 16.104 238.725 15.592L239.997 17.08C239.421 17.752 238.701 18.264 237.837 18.616C236.989 18.968 236.037 19.144 234.981 19.144ZM245.012 19V6.28H247.22V9.736L247.004 8.872C247.356 7.992 247.948 7.32 248.78 6.856C249.612 6.392 250.636 6.16 251.852 6.16V8.392C251.756 8.376 251.66 8.368 251.564 8.368C251.484 8.368 251.404 8.368 251.324 8.368C250.092 8.368 249.116 8.736 248.396 9.472C247.676 10.208 247.316 11.272 247.316 12.664V19H245.012ZM255.692 19V6.28H257.9V9.736L257.684 8.872C258.036 7.992 258.628 7.32 259.46 6.856C260.292 6.392 261.316 6.16 262.532 6.16V8.392C262.436 8.376 262.34 8.368 262.244 8.368C262.164 8.368 262.084 8.368 262.004 8.368C260.772 8.368 259.796 8.736 259.076 9.472C258.356 10.208 257.996 11.272 257.996 12.664V19H255.692ZM273.33 19V16.312L273.21 15.808V11.224C273.21 10.248 272.922 9.496 272.346 8.968C271.786 8.424 270.938 8.152 269.802 8.152C269.05 8.152 268.314 8.28 267.594 8.536C266.874 8.776 266.266 9.104 265.77 9.52L264.81 7.792C265.466 7.264 266.25 6.864 267.162 6.592C268.09 6.304 269.058 6.16 270.066 6.16C271.81 6.16 273.154 6.584 274.098 7.432C275.042 8.28 275.514 9.576 275.514 11.32V19H273.33ZM269.154 19.144C268.21 19.144 267.378 18.984 266.658 18.664C265.954 18.344 265.41 17.904 265.026 17.344C264.642 16.768 264.45 16.12 264.45 15.4C264.45 14.712 264.61 14.088 264.93 13.528C265.266 12.968 265.802 12.52 266.538 12.184C267.29 11.848 268.298 11.68 269.562 11.68H273.594V13.336H269.658C268.506 13.336 267.73 13.528 267.33 13.912C266.93 14.296 266.73 14.76 266.73 15.304C266.73 15.928 266.978 16.432 267.474 16.816C267.97 17.184 268.658 17.368 269.538 17.368C270.402 17.368 271.154 17.176 271.794 16.792C272.45 16.408 272.922 15.848 273.21 15.112L273.666 16.696C273.362 17.448 272.826 18.048 272.058 18.496C271.29 18.928 270.322 19.144 269.154 19.144ZM285.146 19.144C283.866 19.144 282.874 18.8 282.17 18.112C281.466 17.424 281.114 16.44 281.114 15.16V3.496H283.418V15.064C283.418 15.752 283.586 16.28 283.922 16.648C284.274 17.016 284.77 17.2 285.41 17.2C286.13 17.2 286.73 17 287.21 16.6L287.93 18.256C287.578 18.56 287.154 18.784 286.658 18.928C286.178 19.072 285.674 19.144 285.146 19.144ZM278.954 8.176V6.28H287.066V8.176H278.954ZM302.809 19.144C301.753 19.144 300.745 19 299.785 18.712C298.841 18.424 298.097 18.072 297.553 17.656L298.513 15.832C299.057 16.2 299.729 16.512 300.529 16.768C301.329 17.024 302.145 17.152 302.977 17.152C304.049 17.152 304.817 17 305.281 16.696C305.761 16.392 306.001 15.968 306.001 15.424C306.001 15.024 305.857 14.712 305.569 14.488C305.281 14.264 304.897 14.096 304.417 13.984C303.953 13.872 303.433 13.776 302.857 13.696C302.281 13.6 301.705 13.488 301.129 13.36C300.553 13.216 300.025 13.024 299.545 12.784C299.065 12.528 298.681 12.184 298.393 11.752C298.105 11.304 297.961 10.712 297.961 9.976C297.961 9.208 298.177 8.536 298.609 7.96C299.041 7.384 299.649 6.944 300.433 6.64C301.233 6.32 302.177 6.16 303.265 6.16C304.097 6.16 304.937 6.264 305.785 6.472C306.649 6.664 307.353 6.944 307.897 7.312L306.913 9.136C306.337 8.752 305.737 8.488 305.113 8.344C304.489 8.2 303.865 8.128 303.241 8.128C302.233 8.128 301.481 8.296 300.985 8.632C300.489 8.952 300.241 9.368 300.241 9.88C300.241 10.312 300.385 10.648 300.673 10.888C300.977 11.112 301.361 11.288 301.825 11.416C302.305 11.544 302.833 11.656 303.409 11.752C303.985 11.832 304.561 11.944 305.137 12.088C305.713 12.216 306.233 12.4 306.697 12.64C307.177 12.88 307.561 13.216 307.849 13.648C308.153 14.08 308.305 14.656 308.305 15.376C308.305 16.144 308.081 16.808 307.633 17.368C307.185 17.928 306.553 18.368 305.737 18.688C304.921 18.992 303.945 19.144 302.809 19.144ZM317.848 19.144C316.488 19.144 315.288 18.864 314.248 18.304C313.224 17.744 312.424 16.976 311.848 16C311.288 15.024 311.008 13.904 311.008 12.64C311.008 11.376 311.28 10.256 311.824 9.28C312.384 8.304 313.144 7.544 314.104 7C315.08 6.44 316.176 6.16 317.392 6.16C318.624 6.16 319.712 6.432 320.656 6.976C321.6 7.52 322.336 8.288 322.864 9.28C323.408 10.256 323.68 11.4 323.68 12.712C323.68 12.808 323.672 12.92 323.656 13.048C323.656 13.176 323.648 13.296 323.632 13.408H312.808V11.752H322.432L321.496 12.328C321.512 11.512 321.344 10.784 320.992 10.144C320.64 9.504 320.152 9.008 319.528 8.656C318.92 8.288 318.208 8.104 317.392 8.104C316.592 8.104 315.88 8.288 315.256 8.656C314.632 9.008 314.144 9.512 313.792 10.168C313.44 10.808 313.264 11.544 313.264 12.376V12.76C313.264 13.608 313.456 14.368 313.84 15.04C314.24 15.696 314.792 16.208 315.496 16.576C316.2 16.944 317.008 17.128 317.92 17.128C318.672 17.128 319.352 17 319.96 16.744C320.584 16.488 321.128 16.104 321.592 15.592L322.864 17.08C322.288 17.752 321.568 18.264 320.704 18.616C319.856 18.968 318.904 19.144 317.848 19.144ZM343.791 6.16C344.815 6.16 345.719 6.36 346.503 6.76C347.287 7.16 347.895 7.768 348.327 8.584C348.775 9.4 348.999 10.432 348.999 11.68V19H346.695V11.944C346.695 10.712 346.407 9.784 345.831 9.16C345.255 8.536 344.447 8.224 343.407 8.224C342.639 8.224 341.967 8.384 341.391 8.704C340.815 9.024 340.367 9.496 340.047 10.12C339.743 10.744 339.591 11.52 339.591 12.448V19H337.287V11.944C337.287 10.712 336.999 9.784 336.423 9.16C335.863 8.536 335.055 8.224 333.999 8.224C333.247 8.224 332.583 8.384 332.007 8.704C331.431 9.024 330.983 9.496 330.663 10.12C330.343 10.744 330.183 11.52 330.183 12.448V19H327.879V6.28H330.087V9.664L329.727 8.8C330.127 7.968 330.743 7.32 331.575 6.856C332.407 6.392 333.375 6.16 334.479 6.16C335.695 6.16 336.743 6.464 337.623 7.072C338.503 7.664 339.079 8.568 339.351 9.784L338.415 9.4C338.799 8.424 339.471 7.64 340.431 7.048C341.391 6.456 342.511 6.16 343.791 6.16ZM354.239 19V6.28H356.543V19H354.239ZM355.391 3.832C354.943 3.832 354.567 3.688 354.263 3.4C353.975 3.112 353.831 2.76 353.831 2.344C353.831 1.912 353.975 1.552 354.263 1.264C354.567 0.975999 354.943 0.831999 355.391 0.831999C355.839 0.831999 356.207 0.975999 356.495 1.264C356.799 1.536 356.951 1.88 356.951 2.296C356.951 2.728 356.807 3.096 356.519 3.4C356.231 3.688 355.855 3.832 355.391 3.832ZM368.686 19.144C367.598 19.144 366.614 18.904 365.734 18.424C364.87 17.928 364.182 17.2 363.67 16.24C363.174 15.28 362.926 14.08 362.926 12.64C362.926 11.2 363.182 10 363.694 9.04C364.222 8.08 364.918 7.36 365.782 6.88C366.662 6.4 367.63 6.16 368.686 6.16C369.934 6.16 371.038 6.432 371.998 6.976C372.958 7.52 373.718 8.28 374.278 9.256C374.838 10.216 375.118 11.344 375.118 12.64C375.118 13.936 374.838 15.072 374.278 16.048C373.718 17.024 372.958 17.784 371.998 18.328C371.038 18.872 369.934 19.144 368.686 19.144ZM361.942 19V1.192H364.246V9.664L364.006 12.616L364.15 15.568V19H361.942ZM368.494 17.128C369.31 17.128 370.038 16.944 370.678 16.576C371.334 16.208 371.846 15.688 372.214 15.016C372.598 14.328 372.79 13.536 372.79 12.64C372.79 11.728 372.598 10.944 372.214 10.288C371.846 9.616 371.334 9.096 370.678 8.728C370.038 8.36 369.31 8.176 368.494 8.176C367.694 8.176 366.966 8.36 366.31 8.728C365.67 9.096 365.158 9.616 364.774 10.288C364.406 10.944 364.222 11.728 364.222 12.64C364.222 13.536 364.406 14.328 364.774 15.016C365.158 15.688 365.67 16.208 366.31 16.576C366.966 16.944 367.694 17.128 368.494 17.128ZM384.749 19.144C383.469 19.144 382.333 18.864 381.341 18.304C380.349 17.744 379.565 16.976 378.989 16C378.413 15.008 378.125 13.888 378.125 12.64C378.125 11.376 378.413 10.256 378.989 9.28C379.565 8.304 380.349 7.544 381.341 7C382.333 6.44 383.469 6.16 384.749 6.16C386.013 6.16 387.141 6.44 388.133 7C389.141 7.544 389.925 8.304 390.485 9.28C391.061 10.24 391.349 11.36 391.349 12.64C391.349 13.904 391.061 15.024 390.485 16C389.925 16.976 389.141 17.744 388.133 18.304C387.141 18.864 386.013 19.144 384.749 19.144ZM384.749 17.128C385.565 17.128 386.293 16.944 386.933 16.576C387.589 16.208 388.101 15.688 388.469 15.016C388.837 14.328 389.021 13.536 389.021 12.64C389.021 11.728 388.837 10.944 388.469 10.288C388.101 9.616 387.589 9.096 386.933 8.728C386.293 8.36 385.565 8.176 384.749 8.176C383.933 8.176 383.205 8.36 382.565 8.728C381.925 9.096 381.413 9.616 381.029 10.288C380.645 10.944 380.453 11.728 380.453 12.64C380.453 13.536 380.645 14.328 381.029 15.016C381.413 15.688 381.925 16.208 382.565 16.576C383.205 16.944 383.933 17.128 384.749 17.128ZM395.536 19V1.192H397.84V19H395.536ZM408.495 19.144C407.263 19.144 406.159 18.872 405.183 18.328C404.223 17.784 403.463 17.024 402.903 16.048C402.343 15.072 402.063 13.936 402.063 12.64C402.063 11.344 402.343 10.216 402.903 9.256C403.463 8.28 404.223 7.52 405.183 6.976C406.159 6.432 407.263 6.16 408.495 6.16C409.567 6.16 410.535 6.4 411.399 6.88C412.263 7.36 412.951 8.08 413.463 9.04C413.991 10 414.255 11.2 414.255 12.64C414.255 14.08 413.999 15.28 413.487 16.24C412.991 17.2 412.311 17.928 411.447 18.424C410.583 18.904 409.599 19.144 408.495 19.144ZM408.687 17.128C409.487 17.128 410.207 16.944 410.847 16.576C411.503 16.208 412.015 15.688 412.383 15.016C412.767 14.328 412.959 13.536 412.959 12.64C412.959 11.728 412.767 10.944 412.383 10.288C412.015 9.616 411.503 9.096 410.847 8.728C410.207 8.36 409.487 8.176 408.687 8.176C407.871 8.176 407.143 8.36 406.503 8.728C405.863 9.096 405.351 9.616 404.967 10.288C404.583 10.944 404.391 11.728 404.391 12.64C404.391 13.536 404.583 14.328 404.967 15.016C405.351 15.688 405.863 16.208 406.503 16.576C407.143 16.944 407.871 17.128 408.687 17.128ZM413.031 19V15.568L413.175 12.616L412.935 9.664V1.192H415.239V19H413.031Z" fill="white"/>
</svg>
