<svg width="25" height="30" viewBox="0 0 25 30" fill="none" xmlns="http://www.w3.org/2000/svg">
<path d="M23.5758 20.6L22.4558 18.92C20.6638 16.232 19.7678 12.984 19.7678 9.73601C19.7678 6.264 17.5278 3.352 14.5038 2.456C14.1678 1.56 13.2718 1 12.3758 1C11.4798 1 10.5838 1.56 10.2478 2.456C7.22376 3.352 4.98375 6.264 4.98375 9.73601C4.98375 12.984 4.08775 16.232 2.29575 18.92L1.17575 20.6C0.727752 21.384 1.17575 22.28 2.07175 22.28H22.5678C23.4638 22.28 24.0238 21.272 23.5758 20.6Z" stroke="#38393A" stroke-width="2" stroke-miterlimit="10" stroke-linejoin="round"/>
<path d="M15.7356 25.64C15.7356 27.544 14.2796 29 12.3756 29C10.4716 29 9.01562 27.544 9.01562 25.64" stroke="#38393A" stroke-width="2" stroke-miterlimit="10" stroke-linejoin="round"/>
</svg>
