<svg width="32" height="38" viewBox="0 0 32 38" fill="none" xmlns="http://www.w3.org/2000/svg">
<path d="M9.13986 9.13986C13.6354 9.13986 17.2797 7.31769 17.2797 5.06993C17.2797 2.82217 13.6354 1 9.13986 1C4.64434 1 1 2.82217 1 5.06993C1 7.31769 4.64434 9.13986 9.13986 9.13986Z" stroke="white" stroke-width="2" stroke-miterlimit="10" stroke-linecap="round" stroke-linejoin="round"/>
<path d="M1 5.06995V10.4965C1 12.8028 4.66294 14.5665 9.13986 14.5665C13.6168 14.5665 17.2797 12.8028 17.2797 10.4965V5.06995" stroke="white" stroke-width="2" stroke-miterlimit="10" stroke-linecap="round" stroke-linejoin="round"/>
<path d="M1 10.4965V15.9231C1 18.2294 4.66294 19.993 9.13986 19.993C13.6168 19.993 17.2797 18.2294 17.2797 15.9231V10.4965" stroke="white" stroke-width="2" stroke-miterlimit="10" stroke-linecap="round" stroke-linejoin="round"/>
<path d="M1 15.9231V21.3497C1 23.656 4.66294 25.4196 9.13986 25.4196C13.6168 25.4196 17.2797 23.656 17.2797 21.3497V15.9231" stroke="white" stroke-width="2" stroke-miterlimit="10" stroke-linecap="round" stroke-linejoin="round"/>
<path d="M1 21.3497V26.7762C1 29.0825 4.66294 30.8462 9.13986 30.8462C13.6168 30.8462 17.2797 29.0825 17.2797 26.7762V21.3497" stroke="white" stroke-width="2" stroke-miterlimit="10" stroke-linecap="round" stroke-linejoin="round"/>
<path d="M1 26.7762V32.2028C1 34.5091 4.66294 36.2727 9.13986 36.2727C13.6168 36.2727 17.2797 34.5091 17.2797 32.2028V26.7762" stroke="white" stroke-width="2" stroke-miterlimit="10" stroke-linecap="round" stroke-linejoin="round"/>
<path d="M17.2798 27.0476C18.7721 27.7259 20.6714 28.1329 22.7064 28.1329C27.1833 28.1329 30.8462 26.3692 30.8462 24.0629V18.6364" stroke="white" stroke-width="2" stroke-miterlimit="10" stroke-linecap="round" stroke-linejoin="round"/>
<path d="M17.2798 15.6517C18.7721 14.9734 20.6714 14.5664 22.7064 14.5664C27.1833 14.5664 30.8462 16.3301 30.8462 18.6363C30.8462 20.9426 27.1833 22.7063 22.7064 22.7063C20.6714 22.7063 18.7721 22.2993 17.2798 21.621" stroke="white" stroke-width="2" stroke-miterlimit="10" stroke-linecap="round" stroke-linejoin="round"/>
<path d="M17.2798 32.4741C18.7721 33.1524 20.6714 33.5594 22.7064 33.5594C27.1833 33.5594 30.8462 31.7958 30.8462 29.4895V24.0629" stroke="white" stroke-width="2" stroke-miterlimit="10" stroke-linecap="round" stroke-linejoin="round"/>
</svg>
