<svg width="24" height="24" viewBox="0 0 24 24" fill="none" xmlns="http://www.w3.org/2000/svg">
<path d="M8.90337 3.87098C8.49271 3.87098 8.09887 4.03411 7.80849 4.32449C7.51811 4.61487 7.35498 5.00871 7.35498 5.41937V17.8065C7.35498 18.2171 7.51811 18.611 7.80849 18.9014C8.09887 19.1917 8.49271 19.3549 8.90337 19.3549H15.0969C15.5076 19.3549 15.9014 19.1917 16.1918 18.9014C16.4822 18.611 16.6453 18.2171 16.6453 17.8065V5.41937C16.6453 5.00871 16.4822 4.61487 16.1918 4.32449C15.9014 4.03411 15.5076 3.87098 15.0969 3.87098H8.90337ZM15.8711 5.34543V17.8804C15.8711 18.0661 15.7973 18.2443 15.666 18.3756C15.5347 18.5069 15.3566 18.5807 15.1709 18.5807H8.82943C8.64371 18.5807 8.4656 18.5069 8.33428 18.3756C8.20295 18.2443 8.12918 18.0661 8.12918 17.8804V5.34543C8.12918 5.15971 8.20295 4.9816 8.33428 4.85028C8.4656 4.71895 8.64371 4.64517 8.82943 4.64517H9.67757L9.95782 5.2053C9.98995 5.26959 10.0393 5.32367 10.1005 5.36148C10.1616 5.39929 10.232 5.41933 10.3039 5.41937H13.6964C13.7683 5.41933 13.8387 5.39929 13.8998 5.36148C13.961 5.32367 14.0104 5.26959 14.0425 5.2053L14.3227 4.64517H15.1709C15.3566 4.64517 15.5347 4.71895 15.666 4.85028C15.7973 4.9816 15.8711 5.15971 15.8711 5.34543V5.34543Z" fill="white"/>
<path d="M12.0002 8.90325C12.6683 8.90325 13.2099 8.36166 13.2099 7.69357C13.2099 7.02549 12.6683 6.48389 12.0002 6.48389C11.3321 6.48389 10.7905 7.02549 10.7905 7.69357C10.7905 8.36166 11.3321 8.90325 12.0002 8.90325Z" fill="white"/>
<path d="M13.9354 10.0645C13.9354 9.75654 13.8131 9.46116 13.5953 9.24338C13.3775 9.02559 13.0821 8.90324 12.7741 8.90324H11.2257C10.9178 8.90324 10.6224 9.02559 10.4046 9.24338C10.1868 9.46116 10.0645 9.75654 10.0645 10.0645V12.7742H13.9354V10.0645Z" fill="white"/>
<path d="M10.8389 14.3226H9.29053V15.0968H10.8389V14.3226Z" fill="white"/>
<path d="M14.7096 14.3226H11.6128V15.0968H14.7096V14.3226Z" fill="white"/>
<path d="M12.7744 15.871H9.29053V16.6452H12.7744V15.871Z" fill="white"/>
<path d="M14.7096 15.871H13.5483V16.6452H14.7096V15.871Z" fill="white"/>
<path d="M20.701 17.6218C20.5115 17.432 20.2699 17.3027 20.0069 17.2503C19.7439 17.1979 19.4712 17.2247 19.2234 17.3274C18.9757 17.4301 18.7639 17.604 18.6151 17.8271C18.4662 18.0502 18.387 18.3125 18.3873 18.5807V19.1613H18.1937C18.0911 19.1613 17.9926 19.2021 17.92 19.2747C17.8474 19.3473 17.8066 19.4458 17.8066 19.5484V21.871C17.8066 21.9737 17.8474 22.0721 17.92 22.1447C17.9926 22.2173 18.0911 22.2581 18.1937 22.2581H21.2905C21.3932 22.2581 21.4916 22.2173 21.5642 22.1447C21.6368 22.0721 21.6776 21.9737 21.6776 21.871V19.5484C21.6776 19.4458 21.6368 19.3473 21.5642 19.2747C21.4916 19.2021 21.3932 19.1613 21.2905 19.1613H21.097V18.5807C21.0977 18.4026 21.063 18.2262 20.9951 18.0616C20.9271 17.897 20.8271 17.7475 20.701 17.6218V17.6218ZM20.3228 19.1613H19.1615V18.5807C19.1615 18.4267 19.2227 18.279 19.3315 18.1701C19.4404 18.0612 19.5881 18 19.7421 18C19.8961 18 20.0438 18.0612 20.1527 18.1701C20.2616 18.279 20.3228 18.4267 20.3228 18.5807V19.1613Z" fill="white"/>
<path d="M12 0C8.81742 0 5.76517 1.26428 3.51472 3.51473C1.26428 5.76517 0 8.81742 0 12C0 15.1826 1.26428 18.2349 3.51472 20.4853C5.76517 22.7358 8.81742 24 12 24C13.7325 24.0043 15.4447 23.6284 17.016 22.8988L16.6909 22.1966C15.2213 22.8785 13.6201 23.2298 12 23.2258C9.54891 23.2245 7.16567 22.4205 5.21464 20.9368C3.26361 19.4531 1.85214 17.3713 1.196 15.0096C0.539867 12.6479 0.675167 10.1364 1.58122 7.85888C2.48727 5.58138 4.11422 3.66325 6.21336 2.39771C8.31249 1.13217 10.7683 0.58887 13.2054 0.850856C15.6425 1.11284 17.9267 2.1657 19.7089 3.84848C21.4911 5.53126 22.6732 7.75136 23.0744 10.1694C23.4757 12.5874 23.0741 15.0704 21.931 17.2386L22.6158 17.6002C23.5797 15.7711 24.0548 13.724 23.9951 11.6574C23.9354 9.59068 23.3429 7.57447 22.2751 5.80405C21.2072 4.03364 19.7002 2.56905 17.9 1.55218C16.0999 0.535317 14.0675 0.000655611 12 0V0Z" fill="white"/>
</svg>
