<svg width="39" height="41" viewBox="0 0 39 41" fill="none" xmlns="http://www.w3.org/2000/svg">
<path d="M38.9791 4.52436C38.9773 3.32859 38.5029 2.18202 37.6593 1.33453C36.8158 0.487037 35.6714 0.00734339 34.4756 0H12.1671C10.9707 0.00733643 9.82559 0.4868 8.98086 1.33409C8.1362 2.18139 7.66023 3.32795 7.65661 4.52436V18.7935H0.696056C0.511448 18.7935 0.334406 18.8669 0.203868 18.9974C0.0733365 19.1279 0 19.305 0 19.4896V29.0951C0.00183759 30.2963 0.47984 31.4479 1.32923 32.2972C2.17862 33.1466 3.3301 33.6246 4.53132 33.6264H15.3132V36.9745C15.3181 37.1125 15.3589 37.2468 15.4316 37.3643L17.29 40.0441C17.354 40.1363 17.4393 40.2117 17.5387 40.2638C17.6381 40.3159 17.7486 40.3432 17.8608 40.3434C17.973 40.3432 18.0835 40.3159 18.1829 40.2638C18.2823 40.2117 18.3676 40.1363 18.4316 40.0441L19.7193 38.1926L21.007 40.0441C21.0677 40.1415 21.1517 40.2223 21.2513 40.2793C21.3508 40.3364 21.463 40.368 21.5777 40.3712C21.6899 40.371 21.8005 40.3437 21.8999 40.2916C21.9992 40.2395 22.0845 40.1642 22.1485 40.0719L23.4362 38.2204L24.7239 40.0719C24.7879 40.1642 24.8732 40.2395 24.9725 40.2916C25.0719 40.3437 25.1825 40.371 25.2947 40.3712C25.4069 40.371 25.5174 40.3437 25.6168 40.2916C25.7161 40.2395 25.8015 40.1642 25.8654 40.0719L27.1462 38.2204L28.4269 40.0719C28.4908 40.1653 28.5766 40.2416 28.6766 40.2943C28.7767 40.3471 28.8881 40.3746 29.0012 40.3746C29.1143 40.3746 29.2256 40.3471 29.3257 40.2943C29.4258 40.2416 29.5115 40.1653 29.5754 40.0719L30.8631 38.2204L32.1508 40.0719C32.215 40.1638 32.3003 40.2389 32.3997 40.2907C32.4991 40.3426 32.6095 40.3696 32.7216 40.3696C32.8336 40.3696 32.944 40.3426 33.0434 40.2907C33.1428 40.2389 33.2282 40.1638 33.2923 40.0719L34.58 38.2204L35.8677 40.0719C35.9317 40.1642 36.0171 40.2395 36.1164 40.2916C36.2158 40.3437 36.3263 40.371 36.4385 40.3712C36.5507 40.371 36.6613 40.3437 36.7607 40.2916C36.86 40.2395 36.9453 40.1642 37.0093 40.0719L38.8747 37.3991C38.9454 37.2777 38.9882 37.1422 39 37.0023L38.9791 4.52436ZM1.39211 29.123V20.1856H7.65661V29.0951C7.60357 29.8897 7.25053 30.6345 6.66898 31.1786C6.08743 31.7227 5.32079 32.0254 4.52436 32.0254C3.72796 32.0254 2.96133 31.7227 2.37974 31.1786C1.79816 30.6345 1.44512 29.8897 1.39211 29.0951V29.123ZM7.78886 32.2622C8.60012 31.4188 9.05193 30.2932 9.04872 29.123V4.53132C9.04872 3.70235 9.37657 2.90703 9.96077 2.31892C10.545 1.7308 11.3381 1.39762 12.1671 1.39211C12.999 1.3921 13.7972 1.72167 14.3868 2.30868C14.9765 2.89569 15.3095 3.69236 15.3132 4.52436V32.2622H7.78886ZM36.4733 38.4571L35.1856 36.5986C35.1214 36.5067 35.0361 36.4316 34.9367 36.3798C34.8373 36.328 34.7269 36.301 34.6149 36.301C34.5028 36.301 34.3924 36.328 34.293 36.3798C34.1936 36.4316 34.1083 36.5067 34.0441 36.5986L32.7146 38.4571L31.4269 36.5986C31.363 36.5053 31.2773 36.429 31.1772 36.3762C31.0771 36.3235 30.9658 36.2959 30.8527 36.2959C30.7396 36.2959 30.6282 36.3235 30.5281 36.3762C30.4281 36.429 30.3423 36.5053 30.2784 36.5986L28.9977 38.4571L27.71 36.5986C27.646 36.5064 27.5607 36.431 27.4613 36.3789C27.362 36.3268 27.2514 36.2995 27.1392 36.2993C27.027 36.2995 26.9165 36.3268 26.8171 36.3789C26.7177 36.431 26.6324 36.5064 26.5684 36.5986L25.2807 38.4571L23.993 36.5986C23.9289 36.5067 23.8435 36.4316 23.7441 36.3798C23.6447 36.328 23.5343 36.301 23.4223 36.301C23.3102 36.301 23.1998 36.328 23.1004 36.3798C23.001 36.4316 22.9157 36.5067 22.8515 36.5986L21.5777 38.4571L20.29 36.5986C20.2261 36.5064 20.1407 36.431 20.0414 36.3789C19.942 36.3268 19.8315 36.2995 19.7193 36.2993C19.6071 36.2995 19.4965 36.3268 19.3971 36.3789C19.2978 36.431 19.2125 36.5064 19.1485 36.5986L17.8608 38.4571L16.7053 36.7865V4.52436C16.7037 3.35446 16.2468 2.23111 15.4316 1.39211H34.4756C35.3022 1.39944 36.0924 1.73245 36.675 2.31887C37.2575 2.9053 37.5852 3.6978 37.587 4.52436V36.7796L36.4733 38.4571Z" fill="white"/>
<path d="M27.7308 10.6774H26.5823C26.4818 10.6801 26.3817 10.6631 26.2877 10.6272C26.1937 10.5913 26.1078 10.5372 26.0348 10.468C25.9617 10.3988 25.903 10.316 25.862 10.2241C25.821 10.1322 25.7985 10.0332 25.7958 9.93258C25.7941 9.83486 25.8131 9.73783 25.8516 9.64783C25.8899 9.5579 25.9468 9.47708 26.0185 9.41054C26.172 9.26834 26.3731 9.18885 26.5823 9.1878H28.761C28.9456 9.1878 29.1227 9.11451 29.2532 8.98393C29.3837 8.85342 29.4571 8.67641 29.4571 8.49175C29.4571 8.30715 29.3837 8.13015 29.2532 7.99957C29.1227 7.86906 28.9456 7.79569 28.761 7.79569H27.8422V6.84906C27.8422 6.66446 27.7688 6.48745 27.6383 6.35687C27.5078 6.22636 27.3307 6.153 27.1462 6.153C26.9616 6.153 26.7845 6.22636 26.654 6.35687C26.5234 6.48745 26.4501 6.66446 26.4501 6.84906V7.80961C25.9282 7.83683 25.4337 8.05191 25.058 8.41518C24.8526 8.61091 24.6894 8.84639 24.5781 9.10727C24.4668 9.36815 24.4098 9.64901 24.4107 9.93258C24.4134 10.2159 24.4719 10.496 24.5829 10.7568C24.6938 11.0175 24.8551 11.2539 25.0574 11.4523C25.2597 11.6507 25.4991 11.8073 25.762 11.9133C26.0248 12.0191 26.3059 12.0723 26.5893 12.0695H27.7378C27.8393 12.0658 27.9405 12.0821 28.0356 12.1175C28.1308 12.1529 28.2181 12.2068 28.2924 12.276C28.3668 12.3451 28.4268 12.4283 28.4689 12.5207C28.5111 12.613 28.5346 12.7128 28.5383 12.8143C28.5389 12.9109 28.5195 13.0066 28.4811 13.0953C28.4428 13.1839 28.3864 13.2637 28.3155 13.3293C28.1619 13.4757 27.9568 13.5558 27.7448 13.5521H25.5522C25.3676 13.5521 25.1905 13.6254 25.06 13.7559C24.9294 13.8865 24.8561 14.0635 24.8561 14.2481C24.8561 14.4328 24.9294 14.6098 25.06 14.7404C25.1905 14.8709 25.3676 14.9442 25.5522 14.9442H26.4501V15.8978C26.4501 16.0824 26.5234 16.2595 26.654 16.39C26.7845 16.5205 26.9616 16.5938 27.1462 16.5938C27.3307 16.5938 27.5078 16.5205 27.6383 16.39C27.7688 16.2595 27.8422 16.0824 27.8422 15.8978V14.9372C28.3629 14.9046 28.8555 14.6903 29.2343 14.3317C29.4465 14.1386 29.6176 13.9048 29.7372 13.644C29.8568 13.3833 29.9225 13.101 29.9304 12.8143C29.9268 12.5294 29.8669 12.248 29.7543 11.9864C29.6417 11.7246 29.4786 11.4877 29.2742 11.2892C29.0699 11.0907 28.8284 10.9344 28.5635 10.8295C28.2987 10.7245 28.0157 10.6728 27.7308 10.6774Z" fill="white"/>
<path d="M27.146 3.83509C25.6554 3.83647 24.1987 4.27975 22.9599 5.1089C21.7212 5.93804 20.756 7.11583 20.1866 8.4934C19.6171 9.87096 19.4688 11.3865 19.7605 12.8483C20.0521 14.3101 20.7706 15.6527 21.8251 16.7062C22.8796 17.7598 24.2228 18.477 25.685 18.7673C27.147 19.0576 28.6624 18.9079 30.0394 18.3372C31.4164 17.7664 32.5934 16.8002 33.4213 15.5607C34.2494 14.3212 34.6913 12.864 34.6913 11.3734C34.6895 9.37349 33.8937 7.45607 32.4789 6.04259C31.0641 4.62908 29.146 3.83509 27.146 3.83509ZM27.146 17.5196C25.9302 17.5209 24.7412 17.1617 23.7295 16.4871C22.7179 15.8126 21.929 14.8532 21.4628 13.7302C20.9965 12.6073 20.8738 11.3713 21.1102 10.1786C21.3466 8.98586 21.9313 7.89013 22.7906 7.02987C23.6499 6.16962 24.7451 5.58354 25.9375 5.34583C27.1299 5.10813 28.3661 5.22938 29.4895 5.69442C30.613 6.15938 31.5733 6.94711 32.249 7.95799C32.9246 8.96887 33.2853 10.1575 33.2853 11.3734C33.2835 13.0017 32.6363 14.5629 31.4855 15.7149C30.3348 16.8669 28.7744 17.5159 27.146 17.5196Z" fill="white"/>
<path d="M19.4895 23.6173H26.4501C26.6347 23.6173 26.8117 23.5439 26.9423 23.4134C27.0728 23.2829 27.1461 23.1058 27.1461 22.9213C27.1461 22.7367 27.0728 22.5596 26.9423 22.4291C26.8117 22.2985 26.6347 22.2252 26.4501 22.2252H19.4895C19.3049 22.2252 19.1278 22.2985 18.9973 22.4291C18.8668 22.5596 18.7935 22.7367 18.7935 22.9213C18.7935 23.1058 18.8668 23.2829 18.9973 23.4134C19.1278 23.5439 19.3049 23.6173 19.4895 23.6173Z" fill="white"/>
<path d="M33.4106 25.5454H19.4895C19.3049 25.5454 19.1278 25.6187 18.9973 25.7493C18.8668 25.8798 18.7935 26.0568 18.7935 26.2414C18.7935 26.426 18.8668 26.6031 18.9973 26.7336C19.1278 26.8641 19.3049 26.9375 19.4895 26.9375H33.4106C33.5952 26.9375 33.7723 26.8641 33.9028 26.7336C34.0333 26.6031 34.1067 26.426 34.1067 26.2414C34.1067 26.0568 34.0333 25.8798 33.9028 25.7493C33.7723 25.6187 33.5952 25.5454 33.4106 25.5454Z" fill="white"/>
<path d="M33.4106 28.8585H19.4895C19.3049 28.8585 19.1278 28.9318 18.9973 29.0623C18.8668 29.1929 18.7935 29.3699 18.7935 29.5545C18.7935 29.7391 18.8668 29.9161 18.9973 30.0467C19.1278 30.1772 19.3049 30.2506 19.4895 30.2506H33.4106C33.5952 30.2506 33.7723 30.1772 33.9028 30.0467C34.0333 29.9161 34.1067 29.7391 34.1067 29.5545C34.1067 29.3699 34.0333 29.1929 33.9028 29.0623C33.7723 28.9318 33.5952 28.8585 33.4106 28.8585Z" fill="white"/>
<path d="M33.4106 32.1718H19.4895C19.3049 32.1718 19.1278 32.2452 18.9973 32.3757C18.8668 32.5062 18.7935 32.6833 18.7935 32.8679C18.7935 33.0525 18.8668 33.2296 18.9973 33.3601C19.1278 33.4907 19.3049 33.564 19.4895 33.564H33.4106C33.5952 33.564 33.7723 33.4907 33.9028 33.3601C34.0333 33.2296 34.1067 33.0525 34.1067 32.8679C34.1067 32.6833 34.0333 32.5062 33.9028 32.3757C33.7723 32.2452 33.5952 32.1718 33.4106 32.1718Z" fill="white"/>
</svg>
