<svg width="30" height="30" viewBox="0 0 30 30" fill="none" xmlns="http://www.w3.org/2000/svg">
<path d="M13.4426 0H0.957448C0.70352 0 0.459983 0.100876 0.28043 0.28043C0.100876 0.459983 0 0.70352 0 0.957448V13.4426C0 13.6965 0.100876 13.9401 0.28043 14.1196C0.459983 14.2992 0.70352 14.4 0.957448 14.4H13.4426C13.696 14.3984 13.9385 14.2969 14.1178 14.1178C14.2969 13.9385 14.3984 13.696 14.4 13.4426V0.957448C14.4 0.70352 14.2992 0.459983 14.1196 0.28043C13.9401 0.100876 13.6965 0 13.4426 0ZM12.4851 12.4851H1.9149V1.9149H12.4851V12.4851Z" fill="#38393A"/>
<path d="M18.1215 12.8365H27.4854C27.7393 12.8365 27.9828 12.7356 28.1624 12.5561C28.3419 12.3765 28.4428 12.133 28.4428 11.879V2.51519C28.4411 2.26179 28.3397 2.01924 28.1605 1.84007C27.9814 1.66083 27.7388 1.55947 27.4854 1.55775H18.1215C17.8676 1.55775 17.6241 1.65866 17.4445 1.83822C17.265 2.01777 17.1641 2.26128 17.1641 2.51519V11.879C17.1641 12.133 17.265 12.3765 17.4445 12.5561C17.6241 12.7356 17.8676 12.8365 18.1215 12.8365ZM19.079 3.47264H26.5279V10.9216H19.079V3.47264Z" fill="#38393A"/>
<path d="M11.8789 17.1637H2.51507C2.26115 17.1637 2.01764 17.2646 1.83809 17.4441C1.65853 17.6237 1.55762 17.8672 1.55762 18.1211V27.485C1.55934 27.7384 1.6607 27.981 1.83994 28.1601C2.01911 28.3394 2.26166 28.4407 2.51507 28.4425H11.8789C12.1329 28.4425 12.3764 28.3415 12.5559 28.162C12.7355 27.9824 12.8364 27.7389 12.8364 27.485V18.1211C12.8364 17.8672 12.7355 17.6237 12.5559 17.4441C12.3764 17.2646 12.1329 17.1637 11.8789 17.1637ZM10.9215 26.5276H3.47251V19.0785H10.9215V26.5276Z" fill="#38393A"/>
<path d="M29.0427 15.6002H16.5575C16.3041 15.602 16.0616 15.7033 15.8824 15.8826C15.7032 16.0617 15.6018 16.3043 15.6001 16.5577V29.0428C15.6001 29.2968 15.701 29.5403 15.8806 29.7198C16.0601 29.8994 16.3036 30.0003 16.5575 30.0003H29.0427C29.2966 30.0003 29.5402 29.8994 29.7197 29.7198C29.8993 29.5403 30.0001 29.2968 30.0001 29.0428V16.5577C30.0001 16.3038 29.8993 16.0603 29.7197 15.8807C29.5402 15.7011 29.2966 15.6002 29.0427 15.6002ZM28.0852 28.0854H17.515V17.5151H28.0852V28.0854Z" fill="#38393A"/>
</svg>
