<svg width="39" height="38" viewBox="0 0 39 38" fill="none" xmlns="http://www.w3.org/2000/svg">
<path d="M37.3183 33.9705C35.0404 32.826 32.365 32.8958 30.1532 34.1142V27.7316C33.3093 24.7007 35.1096 20.4973 35.1096 16.1091C35.1096 7.22648 27.8831 0 19.0006 0C10.1181 0 2.89154 7.22648 2.89154 16.109C2.89154 20.4972 4.69185 24.7006 7.84819 27.7315V34.114C5.6361 32.8957 2.96072 32.8261 0.68309 33.9705C0.0715814 34.2777 -0.175056 35.0225 0.132146 35.6341C0.439348 36.2457 1.18386 36.4923 1.79574 36.185C3.50802 35.3247 5.5549 35.4786 7.13767 36.5863C9.82744 38.4692 13.3039 38.4694 15.9937 36.5864C17.8204 35.3079 20.1809 35.3078 22.0075 36.5863C23.3526 37.5279 24.8938 37.9987 26.4357 37.9986C27.9771 37.9985 29.5188 37.5278 30.8637 36.5864C32.4466 35.4784 34.4935 35.3248 36.2056 36.185C36.8173 36.4923 37.5619 36.2455 37.8692 35.6341C38.1764 35.0226 37.9298 34.2777 37.3183 33.9705ZM27.6746 35.3629C26.6322 35.621 25.535 35.5495 24.523 35.1472C24.9226 34.9415 25.1964 34.5259 25.1964 34.0457V28.5007C25.1964 27.8163 24.6416 27.2615 23.9572 27.2615C23.2729 27.2615 22.7181 27.8163 22.7181 28.5007V34.0457C22.7181 34.0691 22.7203 34.0921 22.7216 34.1153C21.9338 33.6783 21.0953 33.3889 20.2398 33.2472V30.979C20.2398 30.2947 19.685 29.7399 19.0007 29.7399C18.3164 29.7399 17.7615 30.2947 17.7615 30.979V33.2472C16.6447 33.4322 15.5561 33.8678 14.5726 34.5562C13.2952 35.4503 11.757 35.7183 10.3226 35.3619C10.3242 35.3363 10.3265 35.3108 10.3265 35.2849V17.3482C11.7357 17.3482 11.4026 17.3482 12.8048 17.3482V21.0656C12.8048 21.7499 13.3596 22.3047 14.044 22.3047C14.7283 22.3047 15.2831 21.7499 15.2831 21.0656V17.3482H22.718V23.5439C22.718 24.2283 23.2728 24.7831 23.9572 24.7831C24.6415 24.7831 25.1963 24.2283 25.1963 23.5439V17.3482H27.6746V35.3629V35.3629ZM10.4147 14.8699C11.0178 10.6718 14.6383 7.43489 19.0005 7.43489C23.3627 7.43489 26.9826 10.6718 27.5857 14.8699C26.719 14.8699 11.269 14.8699 10.4147 14.8699ZM19.0006 4.95657C12.8511 4.95657 7.84819 9.95953 7.84819 16.109V23.9418C6.25139 21.6662 5.36987 18.9329 5.36987 16.109C5.36987 8.59304 11.4846 2.47825 19.0006 2.47825C26.5166 2.47825 32.6313 8.59297 32.6313 16.109C32.6313 18.9329 31.7498 21.6661 30.153 23.9418V16.109C30.153 9.9596 25.15 4.95657 19.0006 4.95657Z" fill="white"/>
</svg>
