<svg width="25" height="25" viewBox="0 0 25 25" fill="none" xmlns="http://www.w3.org/2000/svg">
<path d="M18.9548 25C17.5801 24.9612 16.128 24.67 14.7921 24.0099C8.92561 21.059 4.24016 16.885 1.3166 10.8862C0.832566 9.89606 0.445338 8.86713 0.193641 7.79937C-0.464645 4.94554 0.58087 2.2082 2.94295 0.577438C4.25953 -0.335011 5.24695 -0.179702 6.13758 1.14044C7.10564 2.55764 8.13179 3.91661 8.90625 5.4503C9.50645 6.63454 9.70006 7.7023 8.63519 8.88654C7.29926 10.362 7.3767 12.0122 8.63519 13.5264C9.40964 14.4777 10.2228 15.4096 11.0747 16.2638C12.4881 17.7004 13.9402 17.8945 15.7408 17.0209C15.9731 16.9044 16.2248 16.8074 16.4184 16.6521C17.948 15.3708 19.4001 15.6037 20.8716 16.7491C21.9364 17.5839 23.1368 18.2246 24.1049 19.1953C25.2279 20.3019 25.2666 21.0396 24.376 22.3597C23.1175 24.2623 21.2588 24.9612 18.9548 25Z" fill="white"/>
</svg>
