<svg width="17" height="22" viewBox="0 0 17 22" fill="none" xmlns="http://www.w3.org/2000/svg">
<path d="M16.8793 5.33754L11.7905 0.125513C11.7119 0.0451281 11.6049 0 11.4931 0H0.418033C0.187279 0 0 0.189538 0 0.423077V21.5769C0 21.8105 0.187279 22 0.418033 22H16.582C16.8127 22 17 21.8105 17 21.5769V5.6351C17 5.52397 16.9568 5.41708 16.8793 5.33754ZM11.9836 1.52731L15.5868 5.21795H11.9836V1.52731ZM0.836066 21.1538V0.846154H11.1475V5.64103C11.1475 5.87456 11.3348 6.0641 11.5656 6.0641H16.1639V21.1538H0.836066Z" fill="white"/>
</svg>
