<svg width="22" height="29" viewBox="0 0 22 29" fill="none" xmlns="http://www.w3.org/2000/svg">
<path d="M19.885 2.20418H13.916V1.60899C13.916 0.721867 13.2031 0 12.3267 0H9.16452C8.28799 0 7.57496 0.721868 7.57496 1.60908V2.20427H1.60604C0.720487 2.20427 0 2.91868 0 3.79669V4.84888C0 5.50879 0.40692 6.07608 0.984892 6.31738C1.16801 9.9652 2.22775 27.6017 2.27543 28.3942C2.29587 28.7345 2.57777 29 2.91868 29H18.5725C18.9134 29 19.1954 28.7345 19.2157 28.3942C19.2634 27.6018 20.323 9.9652 20.5062 6.31738C21.0842 6.07608 21.4911 5.50879 21.4911 4.84888V3.79659C21.4911 2.91859 20.7707 2.20418 19.885 2.20418V2.20418ZM8.86385 1.60908C8.86385 1.4325 8.99872 1.28888 9.16452 1.28888H12.3267C12.4924 1.28888 12.6272 1.4325 12.6272 1.60908V2.20427H8.86394V1.60908H8.86385ZM1.2887 3.79659C1.2887 3.62922 1.43103 3.49306 1.60586 3.49306H19.8849C20.0597 3.49306 20.2021 3.62913 20.2021 3.79659V4.84878C20.2021 5.01625 20.0597 5.1525 19.8849 5.1525H1.60595C1.43112 5.1525 1.28879 5.01634 1.28879 4.84878V3.79659H1.2887ZM17.9653 27.711H3.52538C3.33619 24.5581 2.46858 10.0649 2.2816 6.44139H19.209C19.022 10.0649 18.1545 24.5581 17.9653 27.711V27.711Z" fill="white"/>
<path d="M10.7455 8.7575C10.3896 8.7575 10.1011 9.04603 10.1011 9.40194V25.6151C10.1011 25.971 10.3896 26.2595 10.7455 26.2595C11.1014 26.2595 11.39 25.971 11.39 25.6151V9.40194C11.39 9.04603 11.1014 8.7575 10.7455 8.7575V8.7575Z" fill="white"/>
<path d="M6.39097 9.39414C6.37237 9.03878 6.0681 8.7647 5.71384 8.78422C5.35848 8.80273 5.08533 9.10589 5.10392 9.46135L5.94925 25.6487C5.9672 25.9927 6.25168 26.2596 6.59222 26.2596C6.60354 26.2596 6.61496 26.2593 6.62637 26.2586C6.98174 26.2401 7.25489 25.937 7.23629 25.5815L6.39097 9.39414V9.39414Z" fill="white"/>
<path d="M15.7769 8.78421C15.418 8.76368 15.1184 9.03867 15.0998 9.39412L14.2543 25.5815C14.2357 25.937 14.5089 26.2401 14.8642 26.2586C14.8757 26.2593 14.8871 26.2595 14.8984 26.2595C15.2388 26.2595 15.5234 25.9927 15.5414 25.6487L16.3869 9.46133C16.4055 9.10587 16.1324 8.80271 15.7769 8.78421V8.78421Z" fill="white"/>
</svg>
