<svg width="16" height="15" viewBox="0 0 16 15" fill="none" xmlns="http://www.w3.org/2000/svg">
<path d="M14.9425 13.0326L9.30078 7.48481L14.9119 1.96737C15.3695 1.51718 15.3695 0.787404 14.9119 0.337459C14.4541 -0.112486 13.7122 -0.112486 13.2543 0.337459L7.64319 5.8549L2.03231 0.337459C1.57447 -0.112486 0.832555 -0.112486 0.374719 0.337459C-0.0831176 0.787651 -0.0831176 1.51742 0.374719 1.96737L5.9856 7.48481L0.343377 13.0326C-0.114459 13.4828 -0.114459 14.2123 0.343377 14.6625C0.572296 14.8876 0.872171 15 1.1723 15C1.47242 15 1.7723 14.8876 2.00122 14.6625L7.64319 9.11472L13.2849 14.6625C13.5138 14.8876 13.8137 15 14.1138 15C14.414 15 14.7138 14.8876 14.9427 14.6625C15.4001 14.2125 15.4001 13.4828 14.9425 13.0326Z" fill="white"/>
</svg>
