<svg width="20" height="49" viewBox="0 0 20 49" fill="none" xmlns="http://www.w3.org/2000/svg">
<path d="M19.1045 47.1501H18.8974L17.3037 28.7294H18.918C19.4125 28.7294 19.8135 28.3153 19.8135 27.8045C19.8135 27.3132 19.4423 26.9126 18.974 26.8825V7.43473C19.4423 7.40479 19.8135 7.00408 19.8135 6.51273C19.8135 6.00196 19.4125 5.58784 18.918 5.58784H18.3507L10.4984 0.156422C10.4979 0.156075 10.4975 0.155844 10.497 0.155613C10.4731 0.13908 10.4484 0.123935 10.4232 0.109946C10.4219 0.109253 10.4207 0.108328 10.4193 0.107634C10.3955 0.09457 10.371 0.0828933 10.3461 0.0721415C10.2931 0.0491348 10.2387 0.0319087 10.1837 0.0200008C10.1802 0.0191915 10.1768 0.018151 10.1733 0.0173417C10.1537 0.0134109 10.1339 0.0108675 10.1142 0.00832401C10.105 0.00705229 10.096 0.00520251 10.0868 0.00427762C10.0722 0.00277467 10.0576 0.00265906 10.0431 0.00196539C10.0287 0.00127172 10.014 0 9.99933 0C9.99048 0 9.98175 0.00092489 9.97291 0.00115611C9.95254 0.00173417 9.93205 0.00242784 9.91168 0.00439323C9.90933 0.00462445 9.90698 0.00520251 9.90474 0.00543373C9.8153 0.0152607 9.72664 0.0394235 9.64157 0.0780376C9.62119 0.0872865 9.60082 0.0965354 9.58101 0.107403C9.57843 0.10879 9.57597 0.11064 9.57339 0.112027C9.54944 0.125438 9.52593 0.139774 9.5031 0.155497C9.50265 0.155844 9.50209 0.156075 9.50164 0.156422L1.64933 5.58784H1.08202C0.587465 5.58784 0.186493 6.00196 0.186493 6.51273C0.186493 7.00408 0.557689 7.40467 1.02605 7.43473V26.8826C0.557689 26.9126 0.186493 27.3133 0.186493 27.8046C0.186493 28.3154 0.587465 28.7295 1.08202 28.7295H2.85572L1.10944 47.1502H0.895526C0.400972 47.1502 0 47.5643 0 48.0751C0 48.5859 0.400972 49 0.895526 49H1.92157C1.92191 49 1.92236 49 1.92269 49C1.92303 49 1.92348 49 1.92381 49H2.94774C3.44229 49 3.84326 48.5859 3.84326 48.0751C3.84326 47.5643 3.44229 47.1502 2.94774 47.1502H2.90912L3.22311 43.8382L10.0001 39.9425L16.8147 43.8598L17.0994 47.1502H17.0523C16.5577 47.1502 16.1567 47.5643 16.1567 48.0751C16.1567 48.5859 16.5577 49 17.0523 49H18.0763C18.0766 49 18.0771 49 18.0774 49C18.0779 49 18.0782 49 18.0786 49H19.1045C19.599 49 20 48.5859 20 48.0751C20 47.5643 19.599 47.1501 19.1045 47.1501ZM4.31196 32.3519H15.8189L15.9943 34.3797L9.99989 37.8255L4.11371 34.4419L4.31196 32.3519ZM3.84013 26.8796C3.83946 26.8796 3.83889 26.8796 3.83822 26.8796H2.8171V7.43762H17.1829V26.8796H16.337C16.3366 26.8796 16.3364 26.8796 16.3361 26.8796H3.84013ZM10 2.03811L15.1319 5.58784H4.86808L10 2.03811ZM15.5055 28.7294L15.6588 30.5021H4.48726L4.65528 28.7294H15.5055V28.7294ZM3.43524 41.599L3.92341 36.4495L8.15846 38.8839L3.43524 41.599ZM11.8413 38.8839L16.1688 36.3963L16.6219 41.6319L11.8413 38.8839Z" fill="white"/>
</svg>
